<?xml version="1.0" encoding="utf-8"?>
<svg viewBox="0 0 77.2 77.2" xmlns="http://www.w3.org/2000/svg">
  <rect width="77.2" height="77.2" style=""/>
  <circle style="fill: rgb(255, 255, 255);" cx="42.465" cy="22.804" r="9"/>
  <path d="M 33.814 7.942 C 45.584 1.146 60.296 9.64 60.297 23.23 L 64.5 23.23 L 57.104 30.626 L 49.708 23.23 L 54.173 23.23 C 54.172 19.111 51.974 15.304 48.407 13.245 C 44.367 10.912 39.796 11.338 36.368 13.556 L 31.975 9.162 C 32.557 8.721 33.171 8.313 33.814 7.942 Z M 51.47 38.52 C 47.292 40.932 42.744 41.418 38.614 40.433 L 29.827 59.278 L 37.397 62.808 L 34.343 69.357 L 26.773 65.827 L 24.049 71.668 L 17.5 68.614 L 32.069 37.372 C 27.854 34.236 24.987 29.23 24.987 23.231 C 24.987 23.231 24.987 23.23 24.987 23.23 L 20.79 23.23 L 28.186 15.834 L 35.582 23.23 L 31.111 23.23 C 31.111 23.23 31.111 23.231 31.111 23.231 C 31.111 27.351 33.309 31.157 36.877 33.217 C 40.919 35.55 45.492 35.123 48.92 32.903 L 53.313 37.296 C 52.729 37.739 52.114 38.148 51.47 38.52 Z" style="stroke-linejoin: round; stroke: rgb(255, 255, 255); fill: rgb(255, 255, 255); stroke-width: 11px;"/>
  <path d="M 33.814 7.942 C 45.584 1.146 60.296 9.64 60.297 23.23 L 64.5 23.23 L 57.104 30.626 L 49.708 23.23 L 54.173 23.23 C 54.172 19.111 51.974 15.304 48.407 13.245 C 44.367 10.912 39.796 11.338 36.368 13.556 L 31.975 9.162 C 32.557 8.721 33.171 8.313 33.814 7.942 Z M 51.47 38.52 C 47.292 40.932 42.744 41.418 38.614 40.433 L 29.827 59.278 L 37.397 62.808 L 34.343 69.357 L 26.773 65.827 L 24.049 71.668 L 17.5 68.614 L 32.069 37.372 C 27.854 34.236 24.987 29.23 24.987 23.231 C 24.987 23.231 24.987 23.23 24.987 23.23 L 20.79 23.23 L 28.186 15.834 L 35.582 23.23 L 31.111 23.23 C 31.111 23.23 31.111 23.231 31.111 23.231 C 31.111 27.351 33.309 31.157 36.877 33.217 C 40.919 35.55 45.492 35.123 48.92 32.903 L 53.313 37.296 C 52.729 37.739 52.114 38.148 51.47 38.52 Z" style="stroke-linejoin: round; stroke: rgb(0, 0, 0); stroke-width: 3.7px;"/>
</svg>