<?xml version="1.0" encoding="utf-8"?>
<svg viewBox="0 0 100 100" xmlns="http://www.w3.org/2000/svg">
  <defs>
    <linearGradient id="gradient" x1="15.95" y1="131.25" x2="131.25" y2="0" gradientUnits="userSpaceOnUse">
      <stop style="stop-color: #0082c9" offset="0"/>
      <stop style="stop-color: #1cafff" offset="1"/>
    </linearGradient>
  </defs>
  <g clip-path="path('M 100 44.782 L 100 55.218 C 100 55.461 100 68.859 100 68.859 C 100 70.049 100 71.238 99.988 72.427 C 99.988 73.434 99.976 74.43 99.951 75.437 C 99.891 77.609 99.757 79.818 99.369 81.966 C 98.981 84.163 98.337 86.201 97.33 88.192 C 96.335 90.146 95.036 91.93 93.483 93.483 C 91.942 95.036 90.146 96.335 88.192 97.33 C 86.214 98.337 84.175 98.981 81.99 99.369 C 79.83 99.757 77.634 99.891 75.449 99.951 C 74.454 99.976 73.459 99.988 72.451 99.988 C 71.262 100 70.073 100 68.884 100 L 55.243 100 L 44.903 100 L 31.238 100 C 30.049 100 28.847 100 27.658 99.988 C 26.663 99.988 25.655 99.976 24.66 99.951 C 22.476 99.891 20.267 99.757 18.107 99.369 C 15.922 98.981 13.883 98.337 11.893 97.33 C 9.927 96.335 8.143 95.024 6.59 93.483 C 5.036 91.93 3.738 90.146 2.743 88.192 C 1.723 86.201 1.08 84.163 0.692 81.978 C 0.303 79.818 0.17 77.609 0.109 75.437 C 0.085 74.43 0.073 73.434 0.073 72.427 C 0.061 71.238 0.061 70.049 0.061 68.859 L 0 55.218 L 0 44.794 L 0 31.432 C 0 30.243 0.061 28.774 0.073 27.585 C 0.073 26.578 0.085 25.583 0.109 24.587 C 0.17 22.403 0.303 20.206 0.692 18.058 C 1.08 15.874 1.723 13.835 2.743 11.845 C 3.738 9.891 5.036 8.107 6.59 6.566 C 8.143 5.012 9.927 3.714 11.893 2.718 C 13.883 1.711 15.922 1.068 18.107 0.68 C 20.267 0.291 22.476 0.158 24.66 0.097 C 25.655 0.073 26.663 0.061 27.658 0.061 C 28.847 0.049 30.049 0.049 31.238 0.049 L 44.782 0 L 55.097 0 L 68.884 0.049 C 70.073 0.049 71.262 0.049 72.451 0.061 C 73.459 0.061 74.454 0.073 75.449 0.097 C 77.634 0.158 79.83 0.291 81.99 0.68 C 84.175 1.068 86.214 1.711 88.192 2.718 C 90.146 3.714 91.942 5.012 93.483 6.566 C 95.036 8.107 96.335 9.891 97.33 11.845 C 98.337 13.835 98.981 15.862 99.369 18.046 C 99.757 20.206 99.891 22.403 99.951 24.587 C 99.976 25.583 99.988 26.578 99.988 27.585 C 100 28.774 100 29.951 100 31.141 C 100 31.141 100 44.6 100 44.782 Z')">
    <rect height="100" width="100" style="fill: url(#gradient)"/>
    <path d="M 45.414 20.333 C 57.184 13.537 71.896 22.031 71.897 35.621 C 71.897 35.621 71.897 35.621 71.897 35.621 L 76.1 35.621 L 68.704 43.017 L 61.308 35.621 L 65.773 35.621 C 65.772 31.502 63.574 27.695 60.007 25.636 C 55.967 23.303 51.396 23.729 47.968 25.947 L 43.575 21.553 C 44.157 21.112 44.771 20.704 45.414 20.333 Z M 63.07 50.911 C 58.892 53.323 54.344 53.809 50.214 52.824 L 41.427 71.669 L 48.997 75.199 L 45.943 81.748 L 38.373 78.218 L 35.649 84.059 L 29.1 81.005 L 43.669 49.763 C 39.454 46.627 36.587 41.621 36.587 35.622 C 36.587 35.622 36.587 35.621 36.587 35.621 L 32.39 35.621 L 39.786 28.225 L 47.182 35.621 L 42.711 35.621 C 42.711 35.621 42.711 35.622 42.711 35.622 C 42.711 39.742 44.909 43.548 48.477 45.608 C 52.519 47.941 57.092 47.514 60.52 45.294 L 64.913 49.687 C 64.329 50.13 63.714 50.539 63.07 50.911 Z" style="stroke-linejoin: round; stroke: rgb(255, 255, 255); fill: rgb(255, 255, 255); stroke-width: 3.7px;"/>
  </g>
</svg>