<?xml version="1.0" encoding="utf-8"?>
<svg viewBox="0 0 100 100" xmlns="http://www.w3.org/2000/svg">
  <defs>
    <linearGradient id="gradient" x1="15.95" y1="131.25" x2="131.25" y2="0" gradientUnits="userSpaceOnUse">
      <stop style="stop-color: #0082c9" offset="0"/>
      <stop style="stop-color: #1cafff" offset="1"/>
    </linearGradient>
  </defs>
  <path d="M 45.414 20.333 C 57.184 13.537 71.896 22.031 71.897 35.621 C 71.897 35.621 71.897 35.621 71.897 35.621 L 76.1 35.621 L 68.704 43.017 L 61.308 35.621 L 65.773 35.621 C 65.772 31.502 63.574 27.695 60.007 25.636 C 55.967 23.303 51.396 23.729 47.968 25.947 L 43.575 21.553 C 44.157 21.112 44.771 20.704 45.414 20.333 Z M 63.07 50.911 C 58.892 53.323 54.344 53.809 50.214 52.824 L 41.427 71.669 L 48.997 75.199 L 45.943 81.748 L 38.373 78.218 L 35.649 84.059 L 29.1 81.005 L 43.669 49.763 C 39.454 46.627 36.587 41.621 36.587 35.622 C 36.587 35.622 36.587 35.621 36.587 35.621 L 32.39 35.621 L 39.786 28.225 L 47.182 35.621 L 42.711 35.621 C 42.711 35.621 42.711 35.622 42.711 35.622 C 42.711 39.742 44.909 43.548 48.477 45.608 C 52.519 47.941 57.092 47.514 60.52 45.294 L 64.913 49.687 C 64.329 50.13 63.714 50.539 63.07 50.911 Z" style="stroke-linejoin: round; stroke: url(#gradient); fill: url(#gradient); stroke-width: 3.7px;"/>
</svg>